<svg height="512pt" viewBox="-39 0 512 512" width="512pt" xmlns="http://www.w3.org/2000/svg"><path d="m428.625 232.894531c-.269531-5.160156-.734375-10.371093-1.375-15.480469l-14.882812 1.871094c.597656 4.75 1.027343 9.59375 1.277343 14.394532zm0 0"/><path d="m407.90625 195.636719c1.175781 4.648437 2.195312 9.398437 3.023438 14.125l14.773437-2.597657c-.894531-5.089843-1.988281-10.203124-3.253906-15.207031zm0 0"/><path d="m25.605469 292.589844c-1.171875-4.644532-2.191407-9.398438-3.019531-14.125l-14.773438 2.59375c.894531 5.085937 1.988281 10.203125 3.25 15.207031zm0 0"/><path d="m4.902344 255.328125c.269531 5.15625.730468 10.367187 1.371094 15.480469l14.882812-1.867188c-.597656-4.753906-1.023438-9.59375-1.273438-14.394531zm0 0"/><path d="m433.53125 385.925781v-59.191406l-15.453125-15.453125c7.195313-21.582031 10.839844-44.136719 10.839844-67.140625v-.886719l-15 .050782v.847656c0 21.511718-3.429688 42.605468-10.199219 62.773437h-29.378906l-2.828125 2.828125-9.800781-5.660156c7.796874-18.855469 11.902343-39.210938 11.902343-59.941406 0-21.246094-4.246093-41.519532-11.933593-60.015625l4.910156-2.835938h66.894531v-59.195312l-19.804687-19.804688h-39.148438c-27.835938-30.996093-63.5625-52.835937-103.863281-63.390625l-3.800781 14.511719c37.640624 9.859375 71 30.320313 96.929687 59.375l-9.3125 9.3125v18.828125l-13.371094 7.722656c-24.757812-32.164062-61.691406-54.492187-103.84375-60.019531v-9.640625h18.996094v-59.191406l-19.808594-19.808594h-39.382812l-19.808594 19.808594v15.863281c-41.019531 7.707031-78.449219 27.179687-108.585937 56.5625l10.472656 10.738281c27.324218-26.640625 61.09375-44.511718 98.113281-52.019531v28.046875h18.992187v9.640625c-42.195312 5.535156-79.167968 27.90625-103.925781 60.128906l-13.285156-7.65625v-19.003906l-19.808594-19.808594h-39.382812l-19.808594 19.808594v59.191406h14.03125c-6.285156 20.277344-9.464844 41.371094-9.464844 62.851563v.820312l15-.058594v-.761718c0-21.542969 3.4375-42.660156 10.226563-62.851563h36.808594l5.152343 2.964844c-7.65625 18.460937-11.882812 38.691406-11.882812 59.886719 0 20.78125 4.128906 41.183594 11.960937 60.078125l-9.746094 5.636719-2.941406-2.941407h-39.382812l-19.808594 19.808594v59.191406h58.9375c7.378906 8.207031 15.414062 15.859375 23.972656 22.828125l-54.390625 103.246094h62.175781l38.917969-74.367188c10.703125 4.824219 21.828125 8.765626 33.160157 11.738282l3.804687-14.507813c-10.242187-2.6875-20.300781-6.226562-29.996094-10.546875l72.59375-138.722656c2.464844.453125 5 .6875 7.589844.6875 2.59375 0 5.128906-.234375 7.59375-.6875l72.59375 138.726562c-13.027344 5.808594-26.628906 10.164063-40.597656 13.011719l-.003907-8.234375-19.003906-18.988281-.003906-10.449219c9.472656-1.238281 18.796875-3.34375 27.886719-6.292968l-4.632813-14.269532c-7.914062 2.570313-16.035156 4.429688-24.28125 5.566406 2.664063-3.839843 4.226563-8.5 4.226563-13.515624 0-6.027344-2.257813-11.539063-5.96875-15.734376 3.105469-.492187 6.179687-1.113281 9.222656-1.863281l-3.59375-14.5625c-.960937.234375-1.925781.457031-2.894531.664063l-.011719-19.445313-15 .007813.011719 21.4375c-3.664063.203125-7.34375.207031-11.011719.003906l-.011719-21.4375-15 .007812.011719 19.441407c-.992187-.210938-1.984375-.4375-2.96875-.679688l-3.589844 14.5625c3.039063.75 6.117188 1.371094 9.21875 1.863281-3.710937 4.195313-5.96875 9.707032-5.96875 15.734376 0 5.015624 1.5625 9.675781 4.226563 13.515624-8.246094-1.136718-16.363282-2.996093-24.28125-5.566406l-4.628906 14.269532c9.132812 2.964843 18.503906 5.074218 28.027343 6.3125l.003907 10.449218-18.988282 19.003906.027344 59.191407 79-.035157-.015625-35.671874c16.402344-3.097657 32.347656-8.121094 47.558594-14.984376l38.917969 74.367188h62.175781l-148.609375-282.121094c-5.859375-16.226562-21.417969-27.855468-39.636719-27.855468-18.261719 0-33.84375 11.679687-39.675781 27.960937l-87.035156 165.210937c-3.808594-3.195312-7.496094-6.539062-11.054688-10.015624v-37.699219l13.40625-7.75c1.789062 2.328125 3.644531 4.609375 5.574219 6.839843l11.355469-9.800781c-17.902344-20.742187-29.316407-46.152343-33.0625-73.050781 3.835937 2.652344 8.488281 4.210938 13.496093 4.210938 6.03125 0 11.542969-2.257813 15.742188-5.972657 2.25 14.109375 7.164062 27.699219 14.539062 40.003907l12.867188-7.707032c-9.039063-15.089844-13.820313-32.414062-13.820313-50.101562 0-10.441406 1.648438-20.503906 4.695313-29.945313l36.757812 21.210938 7.496094-12.988281-38.492187-22.21875c1.660156-3.285157 3.503906-6.464844 5.511718-9.523438l38.496094 22.214844 7.496094-12.992188-36.734375-21.199218c13.503906-14.933594 31.550781-25.6875 51.933593-30.058594v42.4375h15v-44.449219c1.824219-.105469 3.660157-.15625 5.507813-.15625s3.683594.050781 5.503906.15625v44.449219h15v-42.4375c20.46875 4.386718 38.574219 15.210937 52.097657 30.238281l-36.890626 20.953125 7.410157 13.042969 38.714843-21.992188c2.015626 3.085938 3.859376 6.292969 5.519532 9.605469l-38.597656 21.84375 7.386718 13.054688 36.921875-20.894532c2.988281 9.355469 4.601563 19.316406 4.601563 29.648438 0 17.6875-4.78125 35.011718-13.820313 50.101562l12.867188 7.707032c7.371093-12.304688 12.289062-25.894532 14.539062-40.003907 4.199219 3.714844 9.710938 5.972657 15.742188 5.972657 5.007812 0 9.660156-1.558594 13.496093-4.210938-3.746093 26.898438-15.160156 52.308594-33.0625 73.050781l11.355469 9.800781c1.957031-2.265624 3.84375-4.585937 5.660157-6.949218l13.320312 7.6875v38.617187zm-64.046875-257.605469 11.023437-11.019531h26.957032l11.019531 11.019531v37.980469h-25.921875l9.949219-5.746093c6.320312-3.65625 10.246093-10.457032 10.246093-17.753907 0-3.597656-.953124-7.148437-2.757812-10.261719-2.738281-4.738281-7.15625-8.125-12.441406-9.542968-5.289063-1.417969-10.816406-.691406-15.5625 2.050781l-12.511719 7.226563zm20.011719 9.714844c1.277344-.734375 2.757812-.929687 4.179687-.550781 1.417969.382813 2.601563 1.292969 3.335938 2.566406l.011719.015625c.488281.839844.734374 1.761719.734374 2.734375 0 1.988281-1.027343 3.769531-2.75 4.765625l-39.734374 22.945313c-1.71875-3.230469-3.558594-6.410157-5.507813-9.523438zm-311.3125 32.597656-39.753906-22.914062c-1.269532-.730469-2.175782-1.914062-2.554688-3.328125-.382812-1.421875-.1875-2.90625.542969-4.175781.996093-1.730469 2.785156-2.765625 4.78125-2.765625.957031 0 1.898437.253906 2.734375.738281l39.753906 22.914062c-1.949219 3.113282-3.785156 6.292969-5.503906 9.53125zm-63.136719-4.332031v-37.980469l11.019531-11.019531h26.960938l11.019531 11.019531v4.148438l-12.613281-7.269531c-3.105469-1.796875-6.644532-2.75-10.234375-2.75-7.3125 0-14.125 3.9375-17.78125 10.28125-2.730469 4.742187-3.449219 10.265625-2.03125 15.550781 1.417969 5.289062 4.816406 9.707031 9.558593 12.4375l9.683594 5.582031zm201.71875 213.625c-4.839844 0-8.773437-3.9375-8.773437-8.777343 0-4.835938 3.9375-8.773438 8.773437-8.773438 4.839844 0 8.773437 3.9375 8.773437 8.773438 0 4.839843-3.933593 8.777343-8.773437 8.777343zm0 21.074219c1.863281 0 3.722656-.03125 5.578125-.097656l.015625 45.898437c0 3.039063-2.46875 5.507813-5.5 5.507813-1.46875 0-2.847656-.570313-3.898437-1.625-1.039063-1.035156-1.613282-2.410156-1.613282-3.878906l-.015625-45.898438c1.808594.0625 3.621094.09375 5.433594.09375zm-24.394531 72.316406-.019532-37.976562 3.992188-3.996094.007812 15.464844c0 5.484375 2.140626 10.636718 6.003907 14.484375 3.867187 3.878906 9.015625 6.015625 14.503906 6.015625 11.304687 0 20.5-9.199219 20.5-20.511719l-.003906-15.476563 3.996093 3.996094.019532 37.980469zm-96.625-3.316406h-22.253906v15h14.402343l-6.277343 12h-28.304688l124.492188-236.058594 14.355468 24.8125zm256.167968 27-110.542968-211.246094 14.363281-24.832031 124.484375 236.078125zm-135.148437-279.976562c14.957031 0 27.128906 12.171874 27.128906 27.128906 0 14.957031-12.171875 27.128906-27.128906 27.128906s-27.125-12.171875-27.125-27.128906c0-14.957032 12.167969-27.128906 27.125-27.128906zm-152.765625 153.902343h-49v-37.980469l11.019531-11.019531h15.265625l-10.222656 5.910157c-6.320312 3.652343-10.242188 10.460937-10.242188 17.765624 0 3.59375.953126 7.140626 2.753907 10.238282 2.738281 4.746094 7.164062 8.140625 12.460937 9.554687 1.761719.472657 3.550782.703125 5.324219.703125 3.558594 0 7.066406-.9375 10.222656-2.765625l12.417969-7.179687zm-19.933594-20.574219c-1.265625.734376-2.742187.929688-4.160156.550782-1.421875-.378906-2.605469-1.289063-3.351562-2.578125-.488282-.839844-.734376-1.757813-.734376-2.722657 0-1.964843 1.054688-3.796874 2.75-4.777343l39.710938-22.964844c1.726562 3.238281 3.570312 6.417969 5.515625 9.523437zm263.914063-172.265624c5.820312-.339844 11.242187-2.765626 15.398437-6.921876 3.4375-3.441406 5.695313-7.75 6.5625-12.429687 14.265625 18.851563 23.9375 41.367187 27.328125 65.863281-3.835937-2.660156-8.492187-4.21875-13.507812-4.21875-6.027344 0-11.539063 2.253906-15.734375 5.964844-2.839844-17.8125-9.871094-34.246094-20.046875-48.257812zm-202.476563 48.257812c-4.195312-3.710938-9.707031-5.964844-15.734375-5.964844-5.011719 0-9.667969 1.558594-13.507812 4.21875 3.394531-24.496094 13.0625-47.007812 27.328125-65.863281.867187 4.683594 3.125 8.992187 6.566406 12.429687 4.277344 4.277344 9.792969 6.582032 15.40625 6.910157-10.183594 14.015625-17.214844 30.453125-20.058594 48.269531zm30.238282-71.992188c0 2.34375-.914063 4.546876-2.570313 6.207032-3.421875 3.421875-8.988281 3.421875-12.410156 0-1.65625-1.660156-2.570313-3.863282-2.570313-6.207032s.914063-4.546874 2.570313-6.203124c1.710937-1.710938 3.957031-2.566407 6.203125-2.566407 2.25 0 4.496094.855469 6.207031 2.566407 1.65625 1.65625 2.570313 3.859374 2.570313 6.203124zm8.035156-16.808593c-3.523438-3.523438-7.882813-5.707031-12.449219-6.554688 18.859375-14.269531 41.382813-23.945312 65.882813-27.339843-2.660157 3.839843-4.222657 8.496093-4.222657 13.507812 0 6.03125 2.257813 11.539062 5.96875 15.738281-17.8125 2.839844-34.246093 9.871094-48.257812 20.046875-.339844-5.820312-2.765625-11.246094-6.921875-15.398437zm72.988281-29.160157c4.839844 0 8.773437 3.933594 8.773437 8.773438 0 4.835938-3.933593 8.773438-8.773437 8.773438-4.835937 0-8.773437-3.9375-8.773437-8.773438 0-4.839844 3.933593-8.773438 8.773437-8.773438zm19.558594-4.734374c24.5 3.394531 47.019531 13.070312 65.878906 27.339843-4.5625.847657-8.925781 3.03125-12.449219 6.554688-4.15625 4.15625-6.582031 9.578125-6.921875 15.398437-14.011719-10.175781-30.445312-17.207031-48.257812-20.046875 3.710937-4.195312 5.964843-9.707031 5.964843-15.738281 0-5.011719-1.558593-9.667969-4.214843-13.507812zm64.035156 56.910156c-1.65625-1.660156-2.570313-3.863282-2.570313-6.207032s.914063-4.546874 2.570313-6.203124c1.710937-1.710938 3.960937-2.566407 6.207031-2.566407s4.492188.855469 6.203125 2.566407c1.660157 1.65625 2.570313 3.859374 2.570313 6.203124s-.910156 4.546876-2.570313 6.207032c-3.421875 3.421875-8.988281 3.421875-12.410156 0zm-108.09375-96.558594v-37.980469l11.019531-11.019531h26.960938l11.019531 11.019531v37.980469h-3.996094v-22.5c0-5.472656-2.132812-10.617188-6.007812-14.492188-3.871094-3.875-9.019531-6.007812-14.492188-6.007812-11.308593 0-20.511719 9.195312-20.511719 20.5v22.5zm18.992187-22.5c0-3.03125 2.472657-5.5 5.511719-5.5 1.464844 0 2.84375.574219 3.886719 1.613281 1.039062 1.039063 1.613281 2.421875 1.613281 3.886719v45.902344c-1.828125-.0625-3.660156-.097656-5.503906-.097656s-3.679687.035156-5.507813.097656zm-121.488281 211.429688c-4.839843 0-8.777343-3.9375-8.777343-8.777344 0-4.835938 3.9375-8.773438 8.777343-8.773438 4.835938 0 8.773438 3.9375 8.773438 8.773438 0 4.839844-3.933594 8.777344-8.773438 8.777344zm253.992188 0c-4.835938 0-8.773438-3.9375-8.773438-8.777344 0-4.835938 3.9375-8.773438 8.773438-8.773438 4.839843 0 8.777343 3.9375 8.777343 8.773438 0 4.839844-3.9375 8.777344-8.777343 8.777344zm63.75 68.996093 11.019531 11.019531v37.980469h-49v-14.964843l12.527344 7.226562c3.113281 1.792969 6.652344 2.742188 10.230468 2.742188 7.304688 0 14.109376-3.925782 17.769532-10.253907 5.644531-9.796875 2.277344-22.363281-7.507813-28.011719l-9.945312-5.738281zm-52.191407-4.199219 39.730469 22.929688c2.625 1.515625 3.527344 4.894531 2.015625 7.519531-.980468 1.699219-2.8125 2.753907-4.777344 2.753907-.972656 0-1.894531-.25-2.742187-.734376l-39.742187-22.933593c1.953124-3.117188 3.792968-6.300781 5.515624-9.535157zm0 0"/><path d="m213.300781 266.558594c-10.949219-1.691406-19.207031-11.320313-19.207031-22.40625h15c0 3.75 2.792969 7.007812 6.492188 7.582031zm14.445313-2.574219-7.277344-13.117187c2.273438-1.261719 3.75-3.550782 3.945312-6.121094l14.957032 1.144531c-.582032 7.609375-4.925782 14.375-11.625 18.09375zm-4.570313-24.035156c-1.433593-2.171875-3.828125-3.464844-6.410156-3.464844v-15c7.632813 0 14.710937 3.8125 18.925781 10.199219zm0 0"/><path d="m308.726562 404.453125-37.742187-72.027344 13.289063-6.960937 37.738281 72.027344zm-42.382812-80.882813-6.960938-13.289062 13.285157-6.960938 6.964843 13.285157zm-11.601562-22.144531-6.960938-13.289062 13.285156-6.960938 6.960938 13.289063zm0 0"/></svg>